# xmcd CD database file
#
# Track frame offsets:
#	150
#	19480
#	42182
#	61515
#
# Disc length: 1120 seconds
#
# Revision: 2
# Processed by: cddbd v1.5.2PL0 Copyright (c) Steve Scherf et al.
# Submitted via: CDex 1.60beta1-cs1
#
DISCID=29045e04
DTITLE=島谷ひとみ - ANGELUS-アンジェラス-/Z！Z！Z！-Zip！Zap！Zipangu！-
DYEAR=2004
DGENRE=JPop
TTITLE0=ANGELUS-アンジェラス-
TTITLE1=Zip！Zap！Zipangu！
TTITLE2=ANGELUS-アンジェラス-(Instrumental)
TTITLE3=Zip！Zap！Zipangu！(Instrumental)
EXTD=YEAR: 2004
EXTT0=
EXTT1=
EXTT2=
EXTT3=
PLAYORDER=
